<?xml version="1.0" encoding="utf-8"?>
<!-- Generator: Adobe Illustrator 27.0.0, SVG Export Plug-In . SVG Version: 6.00 Build 0)  -->
<svg version="1.1" id="Layer_1" xmlns="http://www.w3.org/2000/svg" xmlns:xlink="http://www.w3.org/1999/xlink" x="0px" y="0px"
	 viewBox="0 0 24 25" style="enable-background:new 0 0 24 25;" xml:space="preserve">
<style type="text/css">
	.st0{clip-path:url(#SVGID_00000051357319675898810500000004154334396372755632_);}
	.st1{fill:#FFFFFF;}
</style>
<g>
	<defs>
		<rect id="SVGID_1_" y="0.5" width="24" height="24"/>
	</defs>
	<clipPath id="SVGID_00000026163223475350374040000012352141237089460412_">
		<use xlink:href="#SVGID_1_"  style="overflow:visible;"/>
	</clipPath>
	<g id="Assets__x2F__Facebook-Header" style="clip-path:url(#SVGID_00000026163223475350374040000012352141237089460412_);">
		<path id="Vector" class="st1" d="M24,12.6c0-6.7-5.4-12.1-12-12.1C5.4,0.5,0,5.9,0,12.6c0,6,4.4,11,10.1,11.9v-8.4h-3v-3.5h3V9.9
			c0-3,1.8-4.7,4.5-4.7c1.3,0,2.7,0.2,2.7,0.2v3h-1.5c-1.5,0-2,0.9-2,1.9v2.3h3.3l-0.5,3.5h-2.8v8.4C19.6,23.6,24,18.6,24,12.6z"/>
	</g>
</g>
</svg>
